<?xml version="1.0" standalone="no"?>
<svg version="1.0" xmlns="http://www.w3.org/2000/svg"
 width="500.000000pt" height="500.000000pt" viewBox="0 0 500.000000 500.000000"
 preserveAspectRatio="xMidYMid meet">
<g transform="translate(0.000000,500.000000) scale(0.100000,-0.100000)"
fill="#ffffff" stroke="none">
<path d="M2524 3928 c11 -24 31 -70 46 -103 16 -33 54 -121 85 -195 31 -74 68
-158 81 -187 13 -28 24 -54 24 -57 0 -3 13 -34 28 -68 16 -35 53 -120 83 -190
l53 -128 58 0 c31 0 180 -4 330 -10 150 -5 381 -12 513 -16 l239 -6 -44 -41
c-25 -22 -97 -89 -160 -148 -63 -58 -140 -128 -171 -155 -47 -40 -269 -240
-450 -404 -22 -20 -39 -43 -39 -52 0 -9 18 -92 41 -185 22 -92 46 -197 54
-233 8 -36 37 -162 65 -280 75 -316 99 -430 89 -430 -4 0 -61 34 -126 76 -65
42 -134 86 -153 99 -19 12 -80 52 -135 87 -55 36 -158 102 -230 148 -71 46
-167 107 -212 137 -46 29 -88 53 -95 53 -7 -1 -67 -36 -133 -80 -66 -43 -154
-100 -195 -126 -41 -27 -127 -81 -190 -122 -63 -41 -131 -85 -150 -97 -19 -12
-88 -57 -152 -99 -65 -42 -121 -76 -126 -76 -8 0 12 102 62 315 14 61 35 151
46 200 11 50 29 126 40 170 11 44 38 157 59 250 22 94 42 177 46 186 4 11 -69
82 -261 255 -466 417 -594 534 -594 544 0 4 91 10 203 13 111 4 365 12 563 19
l362 12 53 125 c29 69 63 149 75 176 12 28 63 147 113 265 50 118 95 222 100
231 5 8 23 50 41 92 17 42 35 77 39 77 4 0 15 -19 25 -42z"/>
</g>
</svg>
