<svg width="400" height="400" viewBox="0 0 400 400" xmlns="http://www.w3.org/2000/svg"><defs><linearGradient id="bg" x1="0%" y1="0%" x2="100%" y2="100%"><stop offset="0%" stop-color="#001122"/><stop offset="50%" stop-color="#000044"/><stop offset="100%" stop-color="#000033"/></linearGradient></defs><rect width="400" height="400" fill="url(#bg)"/><!-- Outer star points --><path d="M200 40 L230 120 L340 120 L270 170 L300 280 L200 240 L100 280 L130 170 L60 120 L170 120 Z" stroke="white" stroke-width="3" stroke-linejoin="round" stroke-linecap="round" fill="none" stroke-opacity="0.9"/><!-- Inner origami folds/lines for 3D effect --><path d="M200 70 L200 110 M200 290 L200 250 M110 200 L150 200 M290 200 L250 200 M130 130 L170 170 M230 230 L270 170 M130 270 L170 230 M230 170 L270 130" stroke="white" stroke-width="1.5" stroke-linecap="round" stroke-linejoin="round" stroke-opacity="0.6"/><!-- Highlight lines for folded look --><path d="M170 170 L200 140 L230 170 M130 230 L160 200 L130 170 M270 170 L240 200 L270 230 M170 230 L200 260 L230 230 M170 130 L200 100 L230 130" stroke="rgba(255,255,255,0.4)" stroke-width="1" stroke-linecap="round" opacity="0.8"/></svg>