<svg width="40" height="40" viewBox="0 0 40 40" fill="none" xmlns="http://www.w3.org/2000/svg">
  <!-- Exact pentagram star as shown in reference image -->
  <!-- 5 outer points of the star -->
  <path d="M20 2L12.36 14.64L2 20L12.36 25.36L20 38L27.64 25.36L38 20L27.64 14.64L20 2Z" stroke="white" stroke-width="2" fill="none"/>
  
  <!-- All internal pentagram connecting lines -->
  <path d="M20 2L12.36 25.36" stroke="white" stroke-width="1.5"/>
  <path d="M20 2L27.64 25.36" stroke="white" stroke-width="1.5"/>
  <path d="M12.36 14.64L38 20" stroke="white" stroke-width="1.5"/>
  <path d="M12.36 14.64L27.64 25.36" stroke="white" stroke-width="1.5"/>
  <path d="M2 20L27.64 14.64" stroke="white" stroke-width="1.5"/>
  <path d="M2 20L20 38" stroke="white" stroke-width="1.5"/>
  <path d="M12.36 25.36L38 20" stroke="white" stroke-width="1.5"/>
  <path d="M12.36 25.36L27.64 14.64" stroke="white" stroke-width="1.5"/>
  <path d="M20 38L27.64 14.64" stroke="white" stroke-width="1.5"/>
  <path d="M20 38L12.36 14.64" stroke="white" stroke-width="1.5"/>
</svg>