<?xml version="1.0" standalone="no"?>
<!DOCTYPE svg PUBLIC "-//W3C//DTD SVG 20010904//EN"
 "http://www.w3.org/TR/2001/REC-SVG-20010904/DTD/svg10.dtd">
<svg version="1.0" xmlns="http://www.w3.org/2000/svg"
 width="500.000000pt" height="500.000000pt" viewBox="0 0 500.000000 500.000000"
 preserveAspectRatio="xMidYMid meet">

<g transform="translate(0.000000,500.000000) scale(0.100000,-0.100000)"
fill="#ffffff" stroke="none">

<path d="M2520 3406 l0 -393 168 -6 c92 -3 170 -2 174 1 3 4 -5 30 -18 57 -13
28 -23 53 -24 57 0 4 -24 63 -54 130 -29 68 -79 184 -111 258 -31 74 -65 153
-75 175 -10 22 -25 57 -33 78 -9 20 -18 37 -21 37 -4 0 -6 -177 -6 -394z"/>
<path d="M2281 3357 c-102 -238 -197 -460 -213 -494 -15 -34 -28 -65 -28 -68
0 -3 -9 -24 -19 -48 -27 -59 -51 -118 -51 -127 0 -8 48 -28 220 -90 58 -21
143 -52 189 -69 46 -17 88 -31 93 -31 10 0 10 1348 0 1354 -4 2 -90 -190 -191
-427z"/>
<path d="M2525 2962 c-3 -3 -5 -124 -5 -270 l0 -264 26 6 c14 4 123 43 242 87
258 96 405 150 722 266 212 77 340 128 340 134 0 3 -102 9 -227 12 -693 19
-965 27 -1025 31 -37 2 -70 1 -73 -2z"/>
<path d="M1585 2940 c-82 -4 -214 -8 -292 -9 -79 0 -143 -4 -143 -8 0 -9 35
-24 225 -93 77 -29 217 -80 310 -115 258 -95 229 -91 253 -37 28 61 112 264
112 268 0 6 -295 1 -465 -6z"/>
<path d="M1170 2817 c30 -29 118 -109 195 -177 77 -69 226 -201 330 -295 283
-255 444 -395 455 -395 11 0 7 -5 171 230 71 102 129 190 129 195 0 12 -13 17
-300 120 -113 40 -243 88 -290 105 -47 17 -132 49 -190 70 -58 21 -154 57
-215 80 -178 67 -326 120 -333 120 -4 0 18 -24 48 -53z"/>
<path d="M3770 2834 c-52 -19 -111 -41 -130 -49 -40 -17 -347 -129 -463 -170
l-78 -28 6 -36 c15 -88 74 -306 82 -306 6 0 48 35 94 77 46 42 94 85 105 95
12 10 57 50 100 89 391 351 406 364 387 364 -4 -1 -51 -17 -103 -36z"/>
<path d="M3010 2553 c-157 -57 -323 -117 -350 -128 -19 -8 -52 -19 -73 -25
-29 -9 -38 -17 -34 -29 2 -9 42 -71 89 -137 115 -162 237 -336 403 -574 77
-111 163 -232 190 -270 28 -38 68 -94 89 -125 22 -30 41 -53 43 -52 1 2 -11
62 -27 133 -17 71 -42 179 -55 239 -14 61 -39 169 -56 240 -17 72 -42 175 -55
230 -123 521 -121 514 -164 498z"/>
<path d="M2468 2306 c-18 -24 -67 -93 -109 -153 -162 -233 -365 -521 -403
-575 -23 -32 -72 -103 -111 -159 -38 -55 -92 -130 -118 -166 -27 -35 -47 -66
-45 -69 4 -4 93 50 249 151 106 69 251 162 349 225 46 30 139 91 207 135 67
44 167 109 222 144 56 35 101 67 101 72 0 4 -6 14 -12 21 -7 7 -27 34 -44 58
-78 115 -172 250 -210 303 l-42 58 -34 -45z"/>
<path d="M1822 2043 c-43 -193 -162 -709 -177 -767 -9 -32 -14 -60 -12 -63 4
-4 35 37 165 222 93 131 303 430 317 450 7 11 2 22 -21 42 -74 68 -242 213
-246 213 -2 0 -14 -44 -26 -97z"/>
<path d="M2696 1775 c-70 -46 -132 -87 -138 -93 -6 -6 60 -54 181 -133 333
-216 563 -360 568 -355 3 3 -47 78 -110 168 -64 90 -125 177 -137 193 -149
213 -213 300 -223 302 -7 1 -70 -36 -141 -82z"/>
</g>
</svg>

